<svg xmlns="http://www.w3.org/2000/svg" width="218" height="227" viewBox="0 0 218 227"><g><g opacity=".8" transform="rotate(-52.46 109.04 113.51)"><g opacity=".8"/><g opacity=".8"><g opacity=".8"><path fill="#ffcf2d" d="M23.62 86.146c0 1.472-1.108 2.577-2.585 2.577-1.477 0-2.585-1.105-2.585-2.577s1.108-2.576 2.585-2.576c1.477 0 2.585 1.227 2.585 2.576z"/></g><g opacity=".8"><path fill="#ffcf2d" d="M45.65 86.146c0 1.472-1.108 2.577-2.585 2.577-1.477 0-2.585-1.105-2.585-2.577s1.108-2.576 2.585-2.576c1.354 0 2.585 1.227 2.585 2.576z"/></g><g opacity=".8"><path fill="#ffcf2d" d="M67.56 86.146c0 1.472-1.108 2.577-2.585 2.577-1.477 0-2.585-1.105-2.585-2.577s1.108-2.576 2.585-2.576c1.477 0 2.585 1.227 2.585 2.576z"/></g><g opacity=".8"><path fill="#ffcf2d" d="M89.59 86.146c0 1.472-1.108 2.577-2.585 2.577-1.477 0-2.585-1.105-2.585-2.577s1.108-2.576 2.585-2.576c1.477 0 2.585 1.227 2.585 2.576z"/></g><g opacity=".8"><path fill="#ffcf2d" d="M111.62 86.146c0 1.472-1.108 2.577-2.585 2.577-1.477 0-2.585-1.105-2.585-2.577s1.108-2.576 2.585-2.576c1.354 0 2.585 1.227 2.585 2.576z"/></g><g opacity=".8"><path fill="#ffcf2d" d="M133.66 86.146c0 1.472-1.108 2.577-2.585 2.577-1.477 0-2.585-1.105-2.585-2.577s1.108-2.576 2.585-2.576c1.477 0 2.585 1.227 2.585 2.576z"/></g><g opacity=".8"><path fill="#ffcf2d" d="M155.57 86.146c0 1.472-1.108 2.577-2.585 2.577-1.477 0-2.585-1.105-2.585-2.577s1.108-2.576 2.585-2.576c1.477 0 2.585 1.227 2.585 2.576z"/></g><g opacity=".8"><path fill="#ffcf2d" d="M177.6 86.146c0 1.472-1.108 2.577-2.585 2.577-1.477 0-2.585-1.105-2.585-2.577s1.108-2.576 2.585-2.576c1.477 0 2.585 1.227 2.585 2.576z"/></g><g opacity=".8"><path fill="#ffcf2d" d="M199.63 86.146c0 1.472-1.108 2.577-2.585 2.577-1.477 0-2.585-1.105-2.585-2.577s1.108-2.576 2.585-2.576c1.354 0 2.585 1.227 2.585 2.576z"/></g><g opacity=".8"><path fill="#ffcf2d" d="M23.62 104.426c0 1.472-1.108 2.577-2.585 2.577-1.477 0-2.585-1.105-2.585-2.577s1.108-2.576 2.585-2.576c1.477 0 2.585 1.104 2.585 2.576z"/></g><g opacity=".8"><path fill="#ffcf2d" d="M45.65 104.426c0 1.472-1.108 2.577-2.585 2.577-1.477 0-2.585-1.105-2.585-2.577s1.108-2.576 2.585-2.576c1.354 0 2.585 1.104 2.585 2.576z"/></g><g opacity=".8"><path fill="#ffcf2d" d="M67.56 104.426c0 1.472-1.108 2.577-2.585 2.577-1.477 0-2.585-1.105-2.585-2.577s1.108-2.576 2.585-2.576c1.477 0 2.585 1.104 2.585 2.576z"/></g><g opacity=".8"><path fill="#ffcf2d" d="M89.59 104.426c0 1.472-1.108 2.577-2.585 2.577-1.477 0-2.585-1.105-2.585-2.577s1.108-2.576 2.585-2.576c1.477 0 2.585 1.104 2.585 2.576z"/></g><g opacity=".8"><path fill="#ffcf2d" d="M111.62 104.426c0 1.472-1.108 2.577-2.585 2.577-1.477 0-2.585-1.105-2.585-2.577s1.108-2.576 2.585-2.576c1.354 0 2.585 1.104 2.585 2.576z"/></g><g opacity=".8"><path fill="#ffcf2d" d="M133.66 104.426c0 1.472-1.108 2.577-2.585 2.577-1.477 0-2.585-1.105-2.585-2.577s1.108-2.576 2.585-2.576c1.477 0 2.585 1.104 2.585 2.576z"/></g><g opacity=".8"><path fill="#ffcf2d" d="M155.57 104.426c0 1.472-1.108 2.577-2.585 2.577-1.477 0-2.585-1.105-2.585-2.577s1.108-2.576 2.585-2.576c1.477 0 2.585 1.104 2.585 2.576z"/></g><g opacity=".8"><path fill="#ffcf2d" d="M177.6 104.426c0 1.472-1.108 2.577-2.585 2.577-1.477 0-2.585-1.105-2.585-2.577s1.108-2.576 2.585-2.576c1.477 0 2.585 1.104 2.585 2.576z"/></g><g opacity=".8"><path fill="#ffcf2d" d="M199.63 104.426c0 1.472-1.108 2.577-2.585 2.577-1.477 0-2.585-1.105-2.585-2.577s1.108-2.576 2.585-2.576c1.354 0 2.585 1.104 2.585 2.576z"/></g><g opacity=".8"><path fill="#ffcf2d" d="M23.62 49.716c0 1.472-1.108 2.577-2.585 2.577-1.477 0-2.585-1.105-2.585-2.577s1.108-2.576 2.585-2.576c1.477 0 2.585 1.104 2.585 2.576z"/></g><g opacity=".8"><path fill="#ffcf2d" d="M45.65 49.716c0 1.472-1.108 2.577-2.585 2.577-1.477 0-2.585-1.105-2.585-2.577s1.108-2.576 2.585-2.576c1.354 0 2.585 1.104 2.585 2.576z"/></g><g opacity=".8"><path fill="#ffcf2d" d="M67.56 49.716c0 1.472-1.108 2.577-2.585 2.577-1.477 0-2.585-1.105-2.585-2.577s1.23-2.576 2.585-2.576c1.477 0 2.585 1.104 2.585 2.576z"/></g><g opacity=".8"><path fill="#ffcf2d" d="M89.59 49.716c0 1.472-1.108 2.577-2.585 2.577-1.477 0-2.585-1.105-2.585-2.577s1.23-2.576 2.585-2.576c1.354 0 2.585 1.104 2.585 2.576z"/></g><g opacity=".8"><path fill="#ffcf2d" d="M111.62 49.716c0 1.472-1.108 2.577-2.585 2.577-1.477 0-2.585-1.105-2.585-2.577s1.108-2.576 2.585-2.576c1.354 0 2.585 1.104 2.585 2.576z"/></g><g opacity=".8"><path fill="#ffcf2d" d="M133.66 49.716c0 1.472-1.108 2.577-2.585 2.577-1.477 0-2.585-1.105-2.585-2.577s1.108-2.576 2.585-2.576c1.477 0 2.585 1.104 2.585 2.576z"/></g><g opacity=".8"><path fill="#ffcf2d" d="M155.57 49.716c0 1.472-1.108 2.577-2.585 2.577-1.477 0-2.585-1.105-2.585-2.577s1.108-2.576 2.585-2.576c1.477 0 2.585 1.104 2.585 2.576z"/></g><g opacity=".8"><path fill="#ffcf2d" d="M177.6 49.716c0 1.472-1.108 2.577-2.585 2.577-1.477 0-2.585-1.105-2.585-2.577s1.108-2.576 2.585-2.576c1.477 0 2.585 1.104 2.585 2.576z"/></g><g opacity=".8"><path fill="#ffcf2d" d="M199.63 49.716c0 1.472-1.108 2.577-2.585 2.577-1.477 0-2.585-1.105-2.585-2.577s1.108-2.576 2.585-2.576c1.354 0 2.585 1.104 2.585 2.576z"/></g><g opacity=".8"><path fill="#ffcf2d" d="M23.62 67.996c0 1.472-1.108 2.577-2.585 2.577-1.477 0-2.585-1.227-2.585-2.577 0-1.472 1.108-2.576 2.585-2.576 1.477 0 2.585 1.104 2.585 2.576z"/></g><g opacity=".8"><path fill="#ffcf2d" d="M45.65 67.996c0 1.472-1.108 2.577-2.585 2.577-1.477 0-2.585-1.105-2.585-2.577s1.108-2.576 2.585-2.576c1.354 0 2.585 1.104 2.585 2.576z"/></g><g opacity=".8"><path fill="#ffcf2d" d="M67.56 67.996c0 1.472-1.108 2.577-2.585 2.577-1.477 0-2.585-1.105-2.585-2.577s1.108-2.576 2.585-2.576c1.477 0 2.585 1.104 2.585 2.576z"/></g><g opacity=".8"><path fill="#ffcf2d" d="M89.59 67.996c0 1.472-1.108 2.577-2.585 2.577-1.477 0-2.585-1.105-2.585-2.577s1.108-2.576 2.585-2.576c1.477 0 2.585 1.104 2.585 2.576z"/></g><g opacity=".8"><path fill="#ffcf2d" d="M111.62 67.996c0 1.472-1.108 2.577-2.585 2.577-1.477 0-2.585-1.105-2.585-2.577s1.108-2.576 2.585-2.576c1.354 0 2.585 1.104 2.585 2.576z"/></g><g opacity=".8"><path fill="#ffcf2d" d="M133.66 67.996c0 1.472-1.108 2.577-2.585 2.577-1.477 0-2.585-1.105-2.585-2.577s1.108-2.576 2.585-2.576c1.477 0 2.585 1.104 2.585 2.576z"/></g><g opacity=".8"><path fill="#ffcf2d" d="M155.57 67.996c0 1.472-1.108 2.577-2.585 2.577-1.477 0-2.585-1.105-2.585-2.577s1.108-2.576 2.585-2.576c1.477 0 2.585 1.104 2.585 2.576z"/></g><g opacity=".8"><path fill="#ffcf2d" d="M177.6 67.996c0 1.472-1.108 2.577-2.585 2.577-1.477 0-2.585-1.105-2.585-2.577s1.108-2.576 2.585-2.576c1.477 0 2.585 1.104 2.585 2.576z"/></g><g opacity=".8"><path fill="#ffcf2d" d="M199.63 67.996c0 1.472-1.108 2.577-2.585 2.577-1.477 0-2.585-1.105-2.585-2.577s1.108-2.576 2.585-2.576c1.354 0 2.585 1.104 2.585 2.576z"/></g><g opacity=".8"><path fill="#ffcf2d" d="M23.62 122.586c0 1.472-1.108 2.577-2.585 2.577-1.477 0-2.585-1.105-2.585-2.577s1.108-2.576 2.585-2.576c1.477 0 2.585 1.227 2.585 2.576z"/></g><g opacity=".8"><path fill="#ffcf2d" d="M45.65 122.586c0 1.472-1.108 2.577-2.585 2.577-1.477 0-2.585-1.105-2.585-2.577s1.108-2.576 2.585-2.576c1.354 0 2.585 1.227 2.585 2.576z"/></g><g opacity=".8"><path fill="#ffcf2d" d="M67.56 122.586c0 1.472-1.108 2.577-2.585 2.577-1.477 0-2.585-1.105-2.585-2.577s1.108-2.576 2.585-2.576c1.477 0 2.585 1.227 2.585 2.576z"/></g><g opacity=".8"><path fill="#ffcf2d" d="M89.59 122.586c0 1.472-1.108 2.577-2.585 2.577-1.477 0-2.585-1.105-2.585-2.577s1.108-2.576 2.585-2.576c1.477 0 2.585 1.227 2.585 2.576z"/></g><g opacity=".8"><path fill="#ffcf2d" d="M111.62 122.586c0 1.472-1.108 2.577-2.585 2.577-1.477 0-2.585-1.105-2.585-2.577s1.108-2.576 2.585-2.576c1.354 0 2.585 1.227 2.585 2.576z"/></g><g opacity=".8"><path fill="#ffcf2d" d="M133.66 122.586c0 1.472-1.108 2.577-2.585 2.577-1.477 0-2.585-1.105-2.585-2.577s1.108-2.576 2.585-2.576c1.477 0 2.585 1.227 2.585 2.576z"/></g><g opacity=".8"><path fill="#ffcf2d" d="M155.57 122.586c0 1.472-1.108 2.577-2.585 2.577-1.477 0-2.585-1.105-2.585-2.577s1.108-2.576 2.585-2.576c1.477 0 2.585 1.227 2.585 2.576z"/></g><g opacity=".8"><path fill="#ffcf2d" d="M177.6 122.586c0 1.472-1.108 2.577-2.585 2.577-1.477 0-2.585-1.105-2.585-2.577s1.108-2.576 2.585-2.576c1.477 0 2.585 1.227 2.585 2.576z"/></g><g opacity=".8"><path fill="#ffcf2d" d="M199.63 122.586c0 1.472-1.108 2.577-2.585 2.577-1.477 0-2.585-1.105-2.585-2.577s1.108-2.576 2.585-2.576c1.354 0 2.585 1.227 2.585 2.576z"/></g><g opacity=".8"><path fill="#ffcf2d" d="M23.62 140.866c0 1.472-1.108 2.577-2.585 2.577-1.477 0-2.585-1.105-2.585-2.577s1.108-2.576 2.585-2.576c1.477 0 2.585 1.104 2.585 2.576z"/></g><g opacity=".8"><path fill="#ffcf2d" d="M45.65 140.866c0 1.472-1.108 2.577-2.585 2.577-1.477 0-2.585-1.105-2.585-2.577s1.108-2.576 2.585-2.576c1.354 0 2.585 1.104 2.585 2.576z"/></g><g opacity=".8"><path fill="#ffcf2d" d="M67.56 140.866c0 1.472-1.108 2.577-2.585 2.577-1.477 0-2.585-1.105-2.585-2.577s1.108-2.576 2.585-2.576c1.477 0 2.585 1.104 2.585 2.576z"/></g><g opacity=".8"><path fill="#ffcf2d" d="M87.005 143.443a2.58 2.58 0 0 0 2.585-2.577 2.58 2.58 0 0 0-2.585-2.576 2.58 2.58 0 0 0-2.585 2.576 2.58 2.58 0 0 0 2.585 2.577z"/></g><g opacity=".8"><path fill="#ffcf2d" d="M111.62 140.866c0 1.472-1.108 2.576-2.585 2.576-1.477 0-2.585-1.104-2.585-2.576s1.108-2.576 2.585-2.576c1.354 0 2.585 1.104 2.585 2.576z"/></g><g opacity=".8"><path fill="#ffcf2d" d="M133.66 140.866c0 1.472-1.108 2.577-2.585 2.577-1.477 0-2.585-1.105-2.585-2.577s1.108-2.576 2.585-2.576c1.477 0 2.585 1.104 2.585 2.576z"/></g><g opacity=".8"><path fill="#ffcf2d" d="M155.57 140.866c0 1.472-1.108 2.577-2.585 2.577-1.477 0-2.585-1.105-2.585-2.577s1.108-2.576 2.585-2.576c1.477 0 2.585 1.104 2.585 2.576z"/></g><g opacity=".8"><path fill="#ffcf2d" d="M175.015 143.443a2.58 2.58 0 0 0 2.585-2.577 2.58 2.58 0 0 0-2.585-2.576 2.58 2.58 0 0 0-2.585 2.576 2.58 2.58 0 0 0 2.585 2.577z"/></g><g opacity=".8"><path fill="#ffcf2d" d="M199.63 140.866c0 1.472-1.108 2.577-2.585 2.577-1.477 0-2.585-1.105-2.585-2.577s1.108-2.576 2.585-2.576c1.354 0 2.585 1.104 2.585 2.576z"/></g><g opacity=".8"><path fill="#ffcf2d" d="M23.62 159.146c0 1.472-1.108 2.577-2.585 2.577-1.477 0-2.585-1.105-2.585-2.577s1.108-2.576 2.585-2.576c1.477 0 2.585 1.104 2.585 2.576z"/></g><g opacity=".8"><path fill="#ffcf2d" d="M45.65 159.146c0 1.472-1.108 2.577-2.585 2.577-1.477 0-2.585-1.105-2.585-2.577s1.108-2.576 2.585-2.576c1.354 0 2.585 1.104 2.585 2.576z"/></g><g opacity=".8"><path fill="#ffcf2d" d="M67.56 159.146c0 1.472-1.108 2.577-2.585 2.577-1.477 0-2.585-1.105-2.585-2.577s1.108-2.576 2.585-2.576c1.477 0 2.585 1.104 2.585 2.576z"/></g><g opacity=".8"><path fill="#ffcf2d" d="M89.59 159.146c0 1.472-1.108 2.577-2.585 2.577-1.477 0-2.585-1.105-2.585-2.577s1.108-2.576 2.585-2.576c1.477 0 2.585 1.104 2.585 2.576z"/></g><g opacity=".8"><path fill="#ffcf2d" d="M111.62 159.146c0 1.472-1.108 2.577-2.585 2.577-1.477 0-2.585-1.105-2.585-2.577s1.108-2.576 2.585-2.576c1.354 0 2.585 1.104 2.585 2.576z"/></g><g opacity=".8"><path fill="#ffcf2d" d="M133.66 159.146c0 1.472-1.108 2.577-2.585 2.577-1.477 0-2.585-1.105-2.585-2.577s1.108-2.576 2.585-2.576c1.477 0 2.585 1.104 2.585 2.576z"/></g><g opacity=".8"><path fill="#ffcf2d" d="M155.57 159.146c0 1.472-1.108 2.577-2.585 2.577-1.477 0-2.585-1.105-2.585-2.577s1.108-2.576 2.585-2.576c1.477 0 2.585 1.104 2.585 2.576z"/></g><g opacity=".8"><path fill="#ffcf2d" d="M177.6 159.146c0 1.472-1.108 2.577-2.585 2.577-1.477 0-2.585-1.105-2.585-2.577s1.108-2.576 2.585-2.576c1.477 0 2.585 1.104 2.585 2.576z"/></g><g opacity=".8"><path fill="#ffcf2d" d="M199.63 159.146c0 1.472-1.108 2.577-2.585 2.577-1.477 0-2.585-1.105-2.585-2.577s1.108-2.576 2.585-2.576c1.354 0 2.585 1.104 2.585 2.576z"/></g><g opacity=".8"><path fill="#ffcf2d" d="M23.62 177.296c0 1.472-1.108 2.577-2.585 2.577-1.477 0-2.585-1.105-2.585-2.577s1.108-2.576 2.585-2.576c1.477 0 2.585 1.227 2.585 2.576z"/></g><g opacity=".8"><path fill="#ffcf2d" d="M45.65 177.296c0 1.472-1.108 2.577-2.585 2.577-1.477 0-2.585-1.105-2.585-2.577s1.108-2.576 2.585-2.576c1.354 0 2.585 1.227 2.585 2.576z"/></g><g opacity=".8"><path fill="#ffcf2d" d="M67.56 177.296c0 1.472-1.108 2.577-2.585 2.577-1.477 0-2.585-1.105-2.585-2.577s1.108-2.576 2.585-2.576c1.477 0 2.585 1.227 2.585 2.576z"/></g><g opacity=".8"><path fill="#ffcf2d" d="M89.59 177.296c0 1.472-1.108 2.577-2.585 2.577-1.477 0-2.585-1.105-2.585-2.577s1.108-2.576 2.585-2.576c1.477 0 2.585 1.227 2.585 2.576z"/></g><g opacity=".8"><path fill="#ffcf2d" d="M111.62 177.296c0 1.472-1.108 2.577-2.585 2.577-1.477 0-2.585-1.105-2.585-2.577s1.108-2.576 2.585-2.576c1.354 0 2.585 1.227 2.585 2.576z"/></g><g opacity=".8"><path fill="#ffcf2d" d="M133.66 177.296c0 1.472-1.108 2.577-2.585 2.577-1.477 0-2.585-1.105-2.585-2.577s1.108-2.576 2.585-2.576c1.477 0 2.585 1.227 2.585 2.576z"/></g><g opacity=".8"><path fill="#ffcf2d" d="M155.57 177.296c0 1.472-1.108 2.576-2.585 2.576-1.477 0-2.585-1.104-2.585-2.576s1.108-2.576 2.585-2.576c1.477 0 2.585 1.227 2.585 2.576z"/></g><g opacity=".8"><path fill="#ffcf2d" d="M177.6 177.296c0 1.472-1.108 2.577-2.585 2.577-1.477 0-2.585-1.105-2.585-2.577s1.108-2.576 2.585-2.576c1.477 0 2.585 1.227 2.585 2.576z"/></g><g opacity=".8"><path fill="#ffcf2d" d="M199.63 177.296c0 1.472-1.108 2.577-2.585 2.577-1.477 0-2.585-1.105-2.585-2.577s1.108-2.576 2.585-2.576c1.354 0 2.585 1.227 2.585 2.576z"/></g></g></g></g></svg>