<svg xmlns="http://www.w3.org/2000/svg" width="187" height="137" viewBox="0 0 187 137"><g><g opacity=".8"><g opacity=".8"/><g opacity=".8"><g opacity=".8"><path fill="#fff" d="M5.336 40.269c0 1.52-1.144 2.659-2.668 2.659-1.525 0-2.668-1.14-2.668-2.659 0-1.52 1.143-2.659 2.668-2.659 1.524 0 2.668 1.266 2.668 2.659z"/></g><g opacity=".8"><path fill="#fff" d="M28.076 40.269c0 1.52-1.144 2.659-2.668 2.659-1.525 0-2.668-1.14-2.668-2.659 0-1.52 1.143-2.659 2.668-2.659 1.397 0 2.668 1.266 2.668 2.659z"/></g><g opacity=".8"><path fill="#fff" d="M50.686 40.269c0 1.52-1.144 2.659-2.668 2.659-1.525 0-2.668-1.14-2.668-2.659 0-1.52 1.143-2.659 2.668-2.659 1.524 0 2.668 1.266 2.668 2.659z"/></g><g opacity=".8"><path fill="#fff" d="M73.426 40.269c0 1.52-1.144 2.659-2.668 2.659-1.525 0-2.668-1.14-2.668-2.659 0-1.52 1.143-2.659 2.668-2.659 1.524 0 2.668 1.266 2.668 2.659z"/></g><g opacity=".8"><path fill="#fff" d="M96.166 40.269c0 1.52-1.144 2.659-2.668 2.659-1.525 0-2.668-1.14-2.668-2.659 0-1.52 1.143-2.659 2.668-2.659 1.397 0 2.668 1.266 2.668 2.659z"/></g><g opacity=".8"><path fill="#fff" d="M118.906 40.269c0 1.52-1.144 2.659-2.668 2.659-1.525 0-2.668-1.14-2.668-2.659 0-1.52 1.143-2.659 2.668-2.659 1.524 0 2.668 1.266 2.668 2.659z"/></g><g opacity=".8"><path fill="#fff" d="M141.516 40.269c0 1.52-1.144 2.659-2.668 2.659-1.525 0-2.668-1.14-2.668-2.659 0-1.52 1.143-2.659 2.668-2.659 1.524 0 2.668 1.266 2.668 2.659z"/></g><g opacity=".8"><path fill="#fff" d="M164.256 40.269c0 1.52-1.144 2.659-2.668 2.659-1.525 0-2.668-1.14-2.668-2.659 0-1.52 1.143-2.659 2.668-2.659 1.524 0 2.668 1.266 2.668 2.659z"/></g><g opacity=".8"><path fill="#fff" d="M186.996 40.269c0 1.52-1.144 2.659-2.668 2.659-1.525 0-2.668-1.14-2.668-2.659 0-1.52 1.143-2.659 2.668-2.659 1.397 0 2.668 1.266 2.668 2.659z"/></g><g opacity=".8"><path fill="#fff" d="M5.336 59.129c0 1.52-1.144 2.659-2.668 2.659-1.525 0-2.668-1.14-2.668-2.659 0-1.52 1.143-2.659 2.668-2.659 1.524 0 2.668 1.14 2.668 2.659z"/></g><g opacity=".8"><path fill="#fff" d="M28.076 59.129c0 1.52-1.144 2.659-2.668 2.659-1.525 0-2.668-1.14-2.668-2.659 0-1.52 1.143-2.659 2.668-2.659 1.397 0 2.668 1.14 2.668 2.659z"/></g><g opacity=".8"><path fill="#fff" d="M50.686 59.129c0 1.52-1.144 2.659-2.668 2.659-1.525 0-2.668-1.14-2.668-2.659 0-1.52 1.143-2.659 2.668-2.659 1.524 0 2.668 1.14 2.668 2.659z"/></g><g opacity=".8"><path fill="#fff" d="M73.426 59.129c0 1.52-1.144 2.659-2.668 2.659-1.525 0-2.668-1.14-2.668-2.659 0-1.52 1.143-2.659 2.668-2.659 1.524 0 2.668 1.14 2.668 2.659z"/></g><g opacity=".8"><path fill="#fff" d="M96.166 59.129c0 1.52-1.144 2.659-2.668 2.659-1.525 0-2.668-1.14-2.668-2.659 0-1.52 1.143-2.659 2.668-2.659 1.397 0 2.668 1.14 2.668 2.659z"/></g><g opacity=".8"><path fill="#fff" d="M118.906 59.129c0 1.52-1.144 2.659-2.668 2.659-1.525 0-2.668-1.14-2.668-2.659 0-1.52 1.143-2.659 2.668-2.659 1.524 0 2.668 1.14 2.668 2.659z"/></g><g opacity=".8"><path fill="#fff" d="M141.516 59.129c0 1.52-1.144 2.659-2.668 2.659-1.525 0-2.668-1.14-2.668-2.659 0-1.52 1.143-2.659 2.668-2.659 1.524 0 2.668 1.14 2.668 2.659z"/></g><g opacity=".8"><path fill="#fff" d="M164.256 59.129c0 1.52-1.144 2.659-2.668 2.659-1.525 0-2.668-1.14-2.668-2.659 0-1.52 1.143-2.659 2.668-2.659 1.524 0 2.668 1.14 2.668 2.659z"/></g><g opacity=".8"><path fill="#fff" d="M186.996 59.129c0 1.52-1.144 2.659-2.668 2.659-1.525 0-2.668-1.14-2.668-2.659 0-1.52 1.143-2.659 2.668-2.659 1.397 0 2.668 1.14 2.668 2.659z"/></g><g opacity=".8"><path fill="#fff" d="M5.336 2.659c0 1.52-1.144 2.659-2.668 2.659C1.143 5.318 0 4.178 0 2.659 0 1.139 1.143 0 2.668 0c1.524 0 2.668 1.14 2.668 2.659z"/></g><g opacity=".8"><path fill="#fff" d="M28.076 2.659c0 1.52-1.144 2.659-2.668 2.659-1.525 0-2.668-1.14-2.668-2.659C22.74 1.139 23.883 0 25.408 0c1.397 0 2.668 1.14 2.668 2.659z"/></g><g opacity=".8"><path fill="#fff" d="M50.686 2.659c0 1.52-1.144 2.659-2.668 2.659-1.525 0-2.668-1.14-2.668-2.659C45.35 1.139 46.62 0 48.018 0c1.524 0 2.668 1.14 2.668 2.659z"/></g><g opacity=".8"><path fill="#fff" d="M73.426 2.659c0 1.52-1.144 2.659-2.668 2.659-1.525 0-2.668-1.14-2.668-2.659C68.09 1.139 69.36 0 70.758 0c1.397 0 2.668 1.14 2.668 2.659z"/></g><g opacity=".8"><path fill="#fff" d="M96.166 2.659c0 1.52-1.144 2.659-2.668 2.659-1.525 0-2.668-1.14-2.668-2.659C90.83 1.139 91.973 0 93.498 0c1.397 0 2.668 1.14 2.668 2.659z"/></g><g opacity=".8"><path fill="#fff" d="M118.906 2.659c0 1.52-1.144 2.659-2.668 2.659-1.525 0-2.668-1.14-2.668-2.659 0-1.52 1.143-2.659 2.668-2.659 1.524 0 2.668 1.14 2.668 2.659z"/></g><g opacity=".8"><path fill="#fff" d="M141.516 2.659c0 1.52-1.144 2.659-2.668 2.659-1.525 0-2.668-1.14-2.668-2.659 0-1.52 1.143-2.659 2.668-2.659 1.524 0 2.668 1.14 2.668 2.659z"/></g><g opacity=".8"><path fill="#fff" d="M164.256 2.659c0 1.52-1.144 2.659-2.668 2.659-1.525 0-2.668-1.14-2.668-2.659 0-1.52 1.143-2.659 2.668-2.659 1.524 0 2.668 1.14 2.668 2.659z"/></g><g opacity=".8"><path fill="#fff" d="M186.996 2.659c0 1.52-1.144 2.659-2.668 2.659-1.525 0-2.668-1.14-2.668-2.659 0-1.52 1.143-2.659 2.668-2.659 1.397 0 2.668 1.14 2.668 2.659z"/></g><g opacity=".8"><path fill="#fff" d="M5.336 21.529c0 1.52-1.144 2.659-2.668 2.659C1.143 24.188 0 22.922 0 21.529c0-1.52 1.143-2.659 2.668-2.659 1.524 0 2.668 1.14 2.668 2.659z"/></g><g opacity=".8"><path fill="#fff" d="M28.076 21.529c0 1.52-1.144 2.659-2.668 2.659-1.525 0-2.668-1.14-2.668-2.659 0-1.52 1.143-2.659 2.668-2.659 1.397 0 2.668 1.14 2.668 2.659z"/></g><g opacity=".8"><path fill="#fff" d="M50.686 21.529c0 1.52-1.144 2.659-2.668 2.659-1.525 0-2.668-1.14-2.668-2.659 0-1.52 1.143-2.659 2.668-2.659 1.524 0 2.668 1.14 2.668 2.659z"/></g><g opacity=".8"><path fill="#fff" d="M73.426 21.529c0 1.52-1.144 2.659-2.668 2.659-1.525 0-2.668-1.14-2.668-2.659 0-1.52 1.143-2.659 2.668-2.659 1.524 0 2.668 1.14 2.668 2.659z"/></g><g opacity=".8"><path fill="#fff" d="M96.166 21.529c0 1.52-1.144 2.659-2.668 2.659-1.525 0-2.668-1.14-2.668-2.659 0-1.52 1.143-2.659 2.668-2.659 1.397 0 2.668 1.14 2.668 2.659z"/></g><g opacity=".8"><path fill="#fff" d="M118.906 21.529c0 1.52-1.144 2.659-2.668 2.659-1.525 0-2.668-1.14-2.668-2.659 0-1.52 1.143-2.659 2.668-2.659 1.524 0 2.668 1.14 2.668 2.659z"/></g><g opacity=".8"><path fill="#fff" d="M141.516 21.529c0 1.52-1.144 2.659-2.668 2.659-1.525 0-2.668-1.14-2.668-2.659 0-1.52 1.143-2.659 2.668-2.659 1.524 0 2.668 1.14 2.668 2.659z"/></g><g opacity=".8"><path fill="#fff" d="M164.256 21.529c0 1.52-1.144 2.659-2.668 2.659-1.525 0-2.668-1.14-2.668-2.659 0-1.52 1.143-2.659 2.668-2.659 1.524 0 2.668 1.14 2.668 2.659z"/></g><g opacity=".8"><path fill="#fff" d="M186.996 21.529c0 1.52-1.144 2.659-2.668 2.659-1.525 0-2.668-1.14-2.668-2.659 0-1.52 1.143-2.659 2.668-2.659 1.397 0 2.668 1.14 2.668 2.659z"/></g><g opacity=".8"><path fill="#fff" d="M5.336 77.869c0 1.52-1.144 2.659-2.668 2.659-1.525 0-2.668-1.14-2.668-2.659 0-1.52 1.143-2.659 2.668-2.659 1.524 0 2.668 1.266 2.668 2.659z"/></g><g opacity=".8"><path fill="#fff" d="M28.076 77.869c0 1.52-1.144 2.659-2.668 2.659-1.525 0-2.668-1.14-2.668-2.659 0-1.52 1.143-2.659 2.668-2.659 1.397 0 2.668 1.266 2.668 2.659z"/></g><g opacity=".8"><path fill="#fff" d="M50.686 77.869c0 1.52-1.144 2.659-2.668 2.659-1.525 0-2.668-1.14-2.668-2.659 0-1.52 1.143-2.659 2.668-2.659 1.524 0 2.668 1.266 2.668 2.659z"/></g><g opacity=".8"><path fill="#fff" d="M73.426 77.869c0 1.52-1.144 2.659-2.668 2.659-1.525 0-2.668-1.14-2.668-2.659 0-1.52 1.143-2.659 2.668-2.659 1.524 0 2.668 1.266 2.668 2.659z"/></g><g opacity=".8"><path fill="#fff" d="M96.166 77.869c0 1.52-1.144 2.659-2.668 2.659-1.525 0-2.668-1.14-2.668-2.659 0-1.52 1.143-2.659 2.668-2.659 1.397 0 2.668 1.266 2.668 2.659z"/></g><g opacity=".8"><path fill="#fff" d="M118.906 77.869c0 1.52-1.144 2.659-2.668 2.659-1.525 0-2.668-1.14-2.668-2.659 0-1.52 1.143-2.659 2.668-2.659 1.524 0 2.668 1.266 2.668 2.659z"/></g><g opacity=".8"><path fill="#fff" d="M141.516 77.869c0 1.52-1.144 2.659-2.668 2.659-1.525 0-2.668-1.14-2.668-2.659 0-1.52 1.143-2.659 2.668-2.659 1.524 0 2.668 1.266 2.668 2.659z"/></g><g opacity=".8"><path fill="#fff" d="M164.256 77.869c0 1.52-1.144 2.659-2.668 2.659-1.525 0-2.668-1.14-2.668-2.659 0-1.52 1.143-2.659 2.668-2.659 1.524 0 2.668 1.266 2.668 2.659z"/></g><g opacity=".8"><path fill="#fff" d="M186.996 77.869c0 1.52-1.144 2.659-2.668 2.659-1.525 0-2.668-1.14-2.668-2.659 0-1.52 1.143-2.659 2.668-2.659 1.397 0 2.668 1.266 2.668 2.659z"/></g><g opacity=".8"><path fill="#fff" d="M5.336 96.739c0 1.52-1.144 2.659-2.668 2.659-1.525 0-2.668-1.14-2.668-2.659 0-1.52 1.143-2.659 2.668-2.659 1.524 0 2.668 1.14 2.668 2.659z"/></g><g opacity=".8"><path fill="#fff" d="M28.076 96.739c0 1.52-1.144 2.659-2.668 2.659-1.525 0-2.668-1.14-2.668-2.659 0-1.52 1.143-2.659 2.668-2.659 1.397 0 2.668 1.14 2.668 2.659z"/></g><g opacity=".8"><path fill="#fff" d="M50.686 96.739c0 1.52-1.144 2.659-2.668 2.659-1.525 0-2.668-1.14-2.668-2.659 0-1.52 1.143-2.659 2.668-2.659 1.524 0 2.668 1.14 2.668 2.659z"/></g><g opacity=".8"><path fill="#fff" d="M70.758 99.398a2.663 2.663 0 0 0 2.668-2.659 2.663 2.663 0 0 0-2.668-2.659 2.663 2.663 0 0 0-2.668 2.659 2.663 2.663 0 0 0 2.668 2.659z"/></g><g opacity=".8"><path fill="#fff" d="M96.166 96.739c0 1.52-1.144 2.659-2.668 2.659-1.525 0-2.668-1.14-2.668-2.659 0-1.52 1.143-2.659 2.668-2.659 1.397 0 2.668 1.14 2.668 2.659z"/></g><g opacity=".8"><path fill="#fff" d="M118.906 96.739c0 1.52-1.144 2.659-2.668 2.659-1.525 0-2.668-1.14-2.668-2.659 0-1.52 1.143-2.659 2.668-2.659 1.524 0 2.668 1.14 2.668 2.659z"/></g><g opacity=".8"><path fill="#fff" d="M141.516 96.739c0 1.52-1.144 2.659-2.668 2.659-1.525 0-2.668-1.14-2.668-2.659 0-1.52 1.143-2.659 2.668-2.659 1.524 0 2.668 1.14 2.668 2.659z"/></g><g opacity=".8"><path fill="#fff" d="M161.588 99.398a2.663 2.663 0 0 0 2.668-2.659 2.663 2.663 0 0 0-2.668-2.659 2.663 2.663 0 0 0-2.668 2.659 2.663 2.663 0 0 0 2.668 2.659z"/></g><g opacity=".8"><path fill="#fff" d="M186.996 96.739c0 1.52-1.144 2.659-2.668 2.659-1.525 0-2.668-1.14-2.668-2.659 0-1.52 1.143-2.659 2.668-2.659 1.397 0 2.668 1.14 2.668 2.659z"/></g><g opacity=".8"><path fill="#fff" d="M5.336 115.599c0 1.52-1.144 2.659-2.668 2.659-1.525 0-2.668-1.14-2.668-2.659 0-1.52 1.143-2.659 2.668-2.659 1.524 0 2.668 1.14 2.668 2.659z"/></g><g opacity=".8"><path fill="#fff" d="M28.076 115.599c0 1.52-1.144 2.659-2.668 2.659-1.525 0-2.668-1.14-2.668-2.659 0-1.52 1.143-2.659 2.668-2.659 1.397 0 2.668 1.14 2.668 2.659z"/></g><g opacity=".8"><path fill="#fff" d="M50.686 115.599c0 1.52-1.144 2.659-2.668 2.659-1.525 0-2.668-1.14-2.668-2.659 0-1.52 1.143-2.659 2.668-2.659 1.524 0 2.668 1.14 2.668 2.659z"/></g><g opacity=".8"><path fill="#fff" d="M73.426 115.599c0 1.52-1.144 2.659-2.668 2.659-1.525 0-2.668-1.14-2.668-2.659 0-1.52 1.143-2.659 2.668-2.659 1.524 0 2.668 1.14 2.668 2.659z"/></g><g opacity=".8"><path fill="#fff" d="M96.166 115.599c0 1.52-1.144 2.659-2.668 2.659-1.525 0-2.668-1.14-2.668-2.659 0-1.52 1.143-2.659 2.668-2.659 1.397 0 2.668 1.14 2.668 2.659z"/></g><g opacity=".8"><path fill="#fff" d="M118.906 115.599c0 1.52-1.144 2.659-2.668 2.659-1.525 0-2.668-1.14-2.668-2.659 0-1.52 1.143-2.659 2.668-2.659 1.524 0 2.668 1.14 2.668 2.659z"/></g><g opacity=".8"><path fill="#fff" d="M141.516 115.599c0 1.52-1.144 2.659-2.668 2.659-1.525 0-2.668-1.14-2.668-2.659 0-1.52 1.143-2.659 2.668-2.659 1.524 0 2.668 1.14 2.668 2.659z"/></g><g opacity=".8"><path fill="#fff" d="M164.256 115.599c0 1.52-1.144 2.659-2.668 2.659-1.525 0-2.668-1.14-2.668-2.659 0-1.52 1.143-2.659 2.668-2.659 1.524 0 2.668 1.14 2.668 2.659z"/></g><g opacity=".8"><path fill="#fff" d="M186.996 115.599c0 1.52-1.144 2.659-2.668 2.659-1.525 0-2.668-1.14-2.668-2.659 0-1.52 1.143-2.659 2.668-2.659 1.397 0 2.668 1.14 2.668 2.659z"/></g><g opacity=".8"><path fill="#fff" d="M5.336 134.339c0 1.52-1.144 2.659-2.668 2.659-1.525 0-2.668-1.14-2.668-2.659 0-1.52 1.143-2.659 2.668-2.659 1.524 0 2.668 1.266 2.668 2.659z"/></g><g opacity=".8"><path fill="#fff" d="M28.076 134.339c0 1.52-1.144 2.659-2.668 2.659-1.525 0-2.668-1.14-2.668-2.659 0-1.52 1.143-2.659 2.668-2.659 1.397 0 2.668 1.266 2.668 2.659z"/></g><g opacity=".8"><path fill="#fff" d="M50.686 134.339c0 1.52-1.144 2.659-2.668 2.659-1.525 0-2.668-1.14-2.668-2.659 0-1.52 1.143-2.659 2.668-2.659 1.524 0 2.668 1.266 2.668 2.659z"/></g><g opacity=".8"><path fill="#fff" d="M73.426 134.339c0 1.52-1.144 2.659-2.668 2.659-1.525 0-2.668-1.14-2.668-2.659 0-1.52 1.143-2.659 2.668-2.659 1.524 0 2.668 1.266 2.668 2.659z"/></g><g opacity=".8"><path fill="#fff" d="M96.166 134.339c0 1.52-1.144 2.659-2.668 2.659-1.525 0-2.668-1.14-2.668-2.659 0-1.52 1.143-2.659 2.668-2.659 1.397 0 2.668 1.266 2.668 2.659z"/></g><g opacity=".8"><path fill="#fff" d="M118.906 134.339c0 1.52-1.144 2.659-2.668 2.659-1.525 0-2.668-1.14-2.668-2.659 0-1.52 1.143-2.659 2.668-2.659 1.524 0 2.668 1.266 2.668 2.659z"/></g><g opacity=".8"><path fill="#fff" d="M141.516 134.339c0 1.52-1.144 2.659-2.668 2.659-1.525 0-2.668-1.14-2.668-2.659 0-1.52 1.143-2.659 2.668-2.659 1.524 0 2.668 1.266 2.668 2.659z"/></g><g opacity=".8"><path fill="#fff" d="M164.256 134.339c0 1.52-1.144 2.659-2.668 2.659-1.525 0-2.668-1.14-2.668-2.659 0-1.52 1.143-2.659 2.668-2.659 1.524 0 2.668 1.266 2.668 2.659z"/></g><g opacity=".8"><path fill="#fff" d="M186.996 134.339c0 1.52-1.144 2.659-2.668 2.659-1.525 0-2.668-1.14-2.668-2.659 0-1.52 1.143-2.659 2.668-2.659 1.397 0 2.668 1.266 2.668 2.659z"/></g></g></g></g></svg>