<svg xmlns="http://www.w3.org/2000/svg" width="16" height="16" viewBox="0 0 16 16"><g><g><g/><g><g><path fill="#ff3f3a" d="M.67 8.003C.67 3.96 3.96.67 8.003.67c1.47 0 2.884.43 4.09 1.244a.611.611 0 0 1-.683 1.014 6.07 6.07 0 0 0-3.407-1.036 6.118 6.118 0 0 0-6.11 6.111 6.118 6.118 0 0 0 6.11 6.111 6.118 6.118 0 0 0 5.87-7.812.61.61 0 1 1 1.173-.343 7.27 7.27 0 0 1 .29 2.044c0 4.044-3.29 7.334-7.333 7.334S.67 12.047.67 8.003zm14.195-6.471a.667.667 0 0 1 .943.943L8.475 9.808a.664.664 0 0 1-.943 0L4.865 7.14a.667.667 0 0 1 .943-.942l2.195 2.195z"/></g></g></g></g></svg>